<?xml version="1.0" encoding="utf-8"?>
<svg version="1.1"
	 xmlns="http://www.w3.org/2000/svg" xmlns:xlink="http://www.w3.org/1999/xlink" xmlns:a="http://ns.adobe.com/AdobeSVGViewerExtensions/3.0/"
	 x="0px" y="0px" width="20px" height="54px" viewBox="0 0 20 54" style="enable-background:new 0 0 20 54;" xml:space="preserve">
<g id="Dark">
</g>
<g id="Light">
	<g id="iPhone_X_1_">
		<path id="iPhone_X" style="fill:#333333;" d="M20,19.4v-6.41c0-1.64-1.34-2.99-2.99-2.99H2.99C1.34,10,0,11.34,0,12.99v2.47v9.66
			v22.89C0,49.66,1.34,51,2.99,51h5.69c0,0,0.32,0,0.35,0s0.02-0.02,0.02-0.03c0-0.01,0-0.04,0.04-0.04s1.06,0,1.06,0h0
			c0,0,1.03,0,1.06,0s0.04,0.02,0.04,0.04c0,0.01,0,0.03,0.02,0.03c0.03,0,5.73,0,5.73,0c1.64,0,2.99-1.34,2.99-2.99V24.14V19.4z
			 M12.6,11.3c0.21,0,0.38,0.17,0.38,0.38c0,0.21-0.17,0.38-0.38,0.38c-0.21,0-0.38-0.17-0.38-0.38
			C12.22,11.47,12.39,11.3,12.6,11.3z M8.28,11.67c0-0.04,0.01-0.18,0.19-0.18h2.74c0.18,0,0.19,0.14,0.19,0.18v0.03
			c0,0.04-0.01,0.18-0.19,0.18H8.47c-0.18,0-0.19-0.14-0.19-0.18V11.67z M1.23,12.97c0-0.99,0.81-1.8,1.8-1.8h1.84
			c0.15,0.02,0.09,0.11,0.12,0.36c0,0.02,0.02,0.59,0.03,0.64C5.09,12.56,5.32,13,6.05,13h7.88c0.73,0,0.96-0.44,1.02-0.83
			c0.01-0.06,0.03-0.62,0.03-0.64c0.03-0.25,0.29-0.34,0.44-0.36h1.54c0.99,0,1.8,0.81,1.8,1.8v35.07c0,0.99-0.81,1.8-1.8,1.8H3.03
			c-0.99,0-1.8-0.81-1.8-1.8V12.97z"/>
		<rect style="fill:none;" width="20" height="54"/>
	</g>
</g>
</svg>
