<?xml version="1.0" encoding="iso-8859-1"?>
<!-- Generator: Adobe Illustrator 19.2.1, SVG Export Plug-In . SVG Version: 6.00 Build 0)  -->
<svg version="1.1"
	 xmlns="http://www.w3.org/2000/svg" xmlns:xlink="http://www.w3.org/1999/xlink" xmlns:a="http://ns.adobe.com/AdobeSVGViewerExtensions/3.0/"
	 x="0px" y="0px" width="32px" height="54px" viewBox="0 0 32 54" style="enable-background:new 0 0 32 54;" xml:space="preserve">
<g id="FPO_Dark">
</g>
<g id="FPO_Light" style="display:none;">
	<g id="iPhone" style="display:inline;">
		<g id="Menu_Component_2_">
			<rect id="Background_2_" x="-478" y="-62" style="fill:#F7F7F7;" width="1000" height="160"/>
		</g>
	</g>
</g>
<g id="Spacing_Guide">
</g>
<g id="Artboard_Guides">
</g>
<g id="Dark">
</g>
<g id="Light">
	<g id="iOS_1_">
		<path style="fill-rule:evenodd;clip-rule:evenodd;fill:#333333;" d="M30.407,24.998c-0.292-0.741-0.965-1.784-1.919-2.518
			c-0.551-0.424-1.209-0.83-2.112-1.098C25.413,21.096,24.226,21,22.75,21H9.25c-1.476,0-2.663,0.096-3.626,0.382
			c-0.903,0.268-1.561,0.673-2.112,1.098c-0.954,0.735-1.627,1.778-1.919,2.518C1.006,26.49,1,28.184,1,29.25v13.5
			c0,1.066,0.006,2.76,0.593,4.252c0.292,0.741,0.965,1.784,1.919,2.518c0.551,0.424,1.209,0.83,2.112,1.098
			C6.587,50.904,7.774,51,9.25,51h13.5c1.476,0,2.663-0.096,3.626-0.382c0.903-0.268,1.561-0.673,2.112-1.098
			c0.954-0.735,1.627-1.778,1.919-2.518C30.994,45.51,31,43.816,31,42.75v-13.5C31,28.184,30.994,26.49,30.407,24.998z M8,41.41
			H7.438V33.9H8V41.41z M7.711,32.059c-0.237,0-0.433-0.188-0.433-0.425c0-0.244,0.195-0.433,0.433-0.433
			c0.244,0,0.438,0.188,0.438,0.433C8.149,31.871,7.955,32.059,7.711,32.059z M13.705,41.557c-2.748,0-4.484-2.001-4.484-5.182
			c0-3.165,1.744-5.174,4.484-5.174s4.483,2.009,4.483,5.174C18.188,39.556,16.452,41.557,13.705,41.557z M22.683,41.557
			c-2.063,0-3.542-1.165-3.626-2.831h0.551c0.084,1.366,1.367,2.322,3.117,2.322c1.708,0,2.9-0.97,2.9-2.28
			c0-1.054-0.711-1.66-2.398-2.085l-1.192-0.293c-1.861-0.475-2.706-1.228-2.706-2.489c0-1.569,1.465-2.699,3.299-2.699
			c1.896,0,3.312,1.116,3.375,2.594h-0.551c-0.077-1.206-1.255-2.085-2.838-2.085c-1.514,0-2.72,0.907-2.72,2.176
			c0,1.005,0.739,1.583,2.356,1.987l1.123,0.286c1.945,0.481,2.817,1.228,2.817,2.566C26.19,40.392,24.789,41.557,22.683,41.557z"/>
		<path style="fill-rule:evenodd;clip-rule:evenodd;fill:#333333;" d="M13.705,31.718c-2.392,0-3.919,1.806-3.919,4.657
			c0,2.853,1.534,4.666,3.919,4.666c2.392,0,3.919-1.813,3.919-4.666C17.624,33.523,16.097,31.718,13.705,31.718z"/>
	</g>
</g>
</svg>
