<svg xmlns="http://www.w3.org/2000/svg" xmlns:xlink="http://www.w3.org/1999/xlink" width="120" height="22" viewBox="0 0 120 22">
    <defs>
        <path id="b" d="M0 0h1440v80H0z"/>
        <filter id="a" width="100.1%" height="102.5%" x="0%" y="-.6%" filterUnits="objectBoundingBox">
            <feOffset dy="1" in="SourceAlpha" result="shadowOffsetOuter1"/>
            <feColorMatrix in="shadowOffsetOuter1" values="0 0 0 0 0 0 0 0 0 0 0 0 0 0 0 0 0 0 0.1 0"/>
        </filter>
    </defs>
    <g fill="none" fill-rule="evenodd">
        <g transform="translate(-150 -28)">
            <use fill="#000" filter="url(#a)" xlink:href="#b"/>
            <use fill="#FFF" xlink:href="#b"/>
        </g>
        <path fill="none" d="M0-8h127v40H0z"/>
        <path fill="#030303" d="M21.129 4.897c-2.383 0-5.036.903-6.398 3.455-1.093-2.153-3.405-3.455-6.362-3.455-2.079 0-4.337.712-5.717 2.674V5.227H0V21.67h2.688v-9.272c0-3.126 2.348-5.036 5.197-5.036 3.1 0 4.893 1.84 4.893 4.966v9.342h2.67v-9.272c0-3.126 2.348-5.036 5.197-5.036 3.118 0 4.91 1.84 4.91 4.966v9.342h2.67V11.478c0-3.977-2.884-6.581-7.096-6.581zm29.23.33V21.67h-2.67v-2.448C46.343 20.906 44.282 22 41.486 22c-4.767 0-8.476-3.612-8.476-8.56 0-4.932 3.71-8.543 8.476-8.543 2.796 0 4.857 1.11 6.201 2.778V5.227h2.67zm-8.549 2.1c-3.638 0-6.075 2.727-6.075 6.113 0 3.403 2.473 6.13 6.075 6.13 3.53 0 6.04-2.64 6.04-6.13 0-3.473-2.51-6.112-6.04-6.112zm26.344-2.1h-7.33V0h-2.67v5.227h-3.71V7.57h3.71v8.352c0 4.132 2.169 6.077 5.824 6.077 2.08 0 3.764-.695 5.036-1.632l-1.254-1.962c-.986.694-2.258 1.163-3.566 1.163-1.972 0-3.37-1.129-3.37-3.698v-8.3h7.33V5.227zm16.237 0h-7.33V0h-2.67v5.227h-3.71V7.57h3.71v8.352c0 4.132 2.168 6.077 5.824 6.077 2.079 0 3.763-.695 5.036-1.632l-1.255-1.962c-.985.694-2.258 1.163-3.566 1.163-1.971 0-3.37-1.129-3.37-3.698v-8.3h7.33V5.227zm11.846-.33c4.605 0 7.939 3.49 7.974 8.49 0 .33-.017.678-.053.973H90.556c.376 3.542 2.939 5.365 6.003 5.365 2.097 0 3.925-.781 5.376-2.066l1.434 1.771c-2.115 1.962-4.48 2.57-6.971 2.57-5.018 0-8.584-3.455-8.584-8.543 0-5.036 3.584-8.56 8.423-8.56zm-.054 2.309c-3.136 0-5.161 2.084-5.592 5.053h10.896c-.34-3.074-2.419-5.053-5.304-5.053zm20.699-2.31c-2.08 0-3.871.956-5.036 2.64v-2.31h-2.652V21.67h2.67v-9.203c0-3.108 1.9-5.122 4.552-5.122.985 0 2.114.226 2.939.66L120 5.452c-.896-.4-1.9-.555-3.118-.555z"/>
    </g>
</svg>
